# xmcd
#
# Track frame offsets: 
#        150
#        27005
#        40402
#        52462
#        66380
#        81497
#        96165
#        111877
#        125979
#        138047
#
# Disc length: 2027 seconds
#
# Revision: 0
# Processed by: cddbd v1.5.1PL2 Copyright (c) Steve Scherf et al.
# Submitted via: ExactAudioCopy v0.95b4
#
DISCID=9707e90a
DTITLE=Sidney Bechet - Blues in My Heart
DYEAR=1996
DGENRE=Blues
TTITLE0=I Had It But It's Gone Now
TTITLE1=Soprano Blues
TTITLE2=Francis Blues
TTITLE3=Trottoirs de Paris
TTITLE4=Elisabeth
TTITLE5=Bechet's Creole Blues
TTITLE6=Society Blues
TTITLE7=Wabash Blues
TTITLE8=Blues in My Heart
TTITLE9=Blues in Paris
EXTD=
EXTT0=
EXTT1=
EXTT2=
EXTT3=
EXTT4=
EXTT5=
EXTT6=
EXTT7=
EXTT8=
EXTT9=
PLAYORDER=
